<svg width="250" height="56" viewBox="0 0 250 56" fill="none" xmlns="http://www.w3.org/2000/svg">
<g clip-path="url(#clip0_880_57)">
<path d="M1.37986 35.4378C1.64511 35.1042 1.7282 34.5795 2.29386 33.5949C2.85951 32.6103 3.23662 31.8977 4.21454 30.518C5.19246 29.135 5.83802 28.1407 7.18026 26.6865C8.5225 25.229 9.36939 24.4809 10.9257 23.2307C12.4821 21.9837 13.4408 21.2809 14.9589 20.4485C16.4801 19.6162 17.2886 19.2437 18.5286 19.0753C19.7685 18.9036 20.3118 18.9716 21.1587 19.5967C22.0056 20.2218 22.4402 20.7854 22.763 22.2007C23.0826 23.6129 23.0762 24.5651 22.7598 26.6638C22.4435 28.7593 22.028 30.1585 21.1811 32.6848C20.3374 35.211 19.6599 36.7754 18.5414 39.2952C17.4228 41.8182 16.6143 43.2141 15.5916 45.2935C14.5658 47.3695 13.901 48.4254 13.4153 49.6885C12.9295 50.9549 12.8464 51.499 13.1628 51.6156C13.4792 51.7355 13.9266 51.3565 14.9972 50.278C16.0678 49.1962 16.8476 48.1566 18.5222 46.223C20.1968 44.2894 21.2578 42.9259 23.3734 40.6069C25.4891 38.2911 26.7642 36.8596 29.0971 34.641C31.4269 32.4224 32.8011 31.2759 35.0317 29.514C37.2592 27.7488 38.4161 26.9456 40.2409 25.8217C42.0657 24.6979 42.9254 24.3027 44.159 23.8979C45.3926 23.493 45.7984 23.5287 46.412 23.8039C47.0288 24.076 47.0672 24.3675 47.2397 25.2679C47.4123 26.165 47.4219 26.8322 47.2781 28.2962C47.1311 29.7569 46.9106 30.7382 46.5111 32.5747C46.1116 34.4111 45.8272 35.5576 45.2775 37.475C44.731 39.3956 44.3156 40.4482 43.7723 42.1648C43.229 43.8846 42.8167 44.772 42.5611 46.0643C42.3054 47.3566 42.1936 47.9558 42.4972 48.6262C42.7976 49.2934 43.1907 49.5201 44.0695 49.4132C44.9484 49.3063 45.5268 48.9695 46.8914 48.095C48.2592 47.2205 49.1029 46.4562 50.899 45.0376C52.6982 43.6222 53.8199 42.6733 55.878 41.015C57.9393 39.3567 59.0962 38.3721 61.1927 36.7527C63.2891 35.1301 64.4907 34.1487 66.3539 32.9083C68.2171 31.6645 69.2525 31.101 70.5085 30.5374C71.7676 29.9739 72.1894 29.8735 72.6368 30.0872C73.0875 30.301 72.966 30.6217 72.7551 31.603C72.5442 32.5844 72.215 33.4362 71.5822 34.9908C70.9463 36.5487 70.3359 37.5786 69.5817 39.3826C68.8274 41.1834 68.3129 42.2555 67.8112 44.0076C67.3062 45.7598 67.0761 46.6764 67.0698 48.1468C67.0634 49.6173 67.1337 50.3784 67.7824 51.3533C68.428 52.3282 68.9553 52.6974 70.3039 53.0245C71.6494 53.3484 72.5538 53.2966 74.516 52.9792C76.4782 52.665 77.6798 52.3508 80.1119 51.444C82.5439 50.5403 83.9436 49.8569 86.6761 48.4513C89.4085 47.0457 90.9776 46.1647 93.7739 44.4157C96.5735 42.67 98.1203 41.6401 100.664 39.713C103.208 37.7859 104.432 36.6685 106.49 34.777C108.545 32.8888 109.533 31.888 110.942 30.2621C112.351 28.6363 112.946 27.901 113.534 26.6509C114.118 25.4039 114.237 24.6849 113.872 24.0177C113.508 23.3538 112.891 23.1724 111.712 23.3214C110.533 23.4736 109.635 23.8623 107.979 24.7724C106.324 25.6857 105.263 26.3691 103.435 27.8816C101.607 29.3909 100.495 30.4403 98.8425 32.3285C97.1903 34.2167 96.3114 35.3341 95.1705 37.3195C94.0328 39.3081 93.5535 40.4482 93.1476 42.2619C92.7417 44.0789 92.6842 44.9631 93.1444 46.3946C93.6014 47.8262 94.1607 48.5387 95.4422 49.4197C96.7237 50.3007 97.6249 50.5889 99.5552 50.8059C101.485 51.0229 102.69 50.9096 105.09 50.5047C107.494 50.0998 108.89 49.6658 111.562 48.7849C114.234 47.9072 115.707 47.376 118.442 46.1064C121.181 44.8368 122.69 44.0206 125.249 42.4401C127.809 40.8563 129.161 39.7324 131.245 38.1972C133.329 36.6588 134.412 35.7649 135.661 34.7544C136.914 33.7471 137.288 33.339 137.499 33.1512C137.713 32.9633 137.275 33.0508 136.719 33.8151C136.166 34.5795 135.626 35.4701 134.725 36.9794C133.821 38.4887 133.035 39.6353 132.21 41.3615C131.385 43.0911 130.896 44.0498 130.602 45.6173C130.305 47.1849 130.277 48.0367 130.734 49.1995C131.191 50.3654 131.616 50.9031 132.881 51.444C134.15 51.9816 135.128 52.069 137.071 51.8974C139.011 51.729 140.219 51.4083 142.584 50.5889C144.952 49.7695 146.31 49.1574 148.905 47.8035C151.503 46.4497 152.938 45.5914 155.571 43.8263C158.205 42.0611 159.537 41.015 162.075 38.9778C164.615 36.9406 165.926 35.8199 168.265 33.6402C170.601 31.4637 171.761 30.2816 173.762 28.0889C175.763 25.8995 176.651 24.7529 178.268 22.6833C179.882 20.6137 180.633 19.6324 181.841 17.7441C183.046 15.8527 183.484 14.949 184.305 13.2422C185.129 11.5353 185.475 10.7159 185.954 9.20664C186.433 7.69412 186.574 6.94271 186.705 5.68606C186.839 4.42616 186.865 3.79135 186.619 2.91039C186.376 2.03268 186.149 1.64078 185.484 1.28775C184.819 0.934716 184.289 0.863461 183.295 1.14524C182.304 1.43025 181.742 1.76709 180.524 2.71282C179.31 3.65855 178.604 4.27393 177.21 5.87714C175.817 7.48359 175.043 8.50382 173.561 10.7418C172.078 12.9766 171.256 14.3499 169.793 17.0575C168.326 19.7684 167.552 21.3133 166.233 24.2833C164.916 27.25 164.261 28.8986 163.206 31.901C162.152 34.9001 161.599 36.526 160.966 39.2822C160.336 42.0385 160.129 43.4214 160.049 45.6854C159.972 47.946 160.109 48.9727 160.579 50.5954C161.046 52.2148 161.41 52.9014 162.388 53.7856C163.363 54.6698 164.095 54.9613 165.462 55.0196C166.83 55.0811 167.722 54.822 169.227 54.0868C170.729 53.3516 171.56 52.6812 172.979 51.3436C174.398 50.0027 175.162 49.0731 176.325 47.389C177.488 45.708 178.054 44.6489 178.802 42.9324C179.55 41.2126 179.732 40.2377 180.064 38.7932C180.396 37.3487 180.444 36.6879 180.467 35.7098C180.489 34.7317 180.265 34.3625 180.173 33.9026C180.08 33.4459 179.856 33.4135 180.007 33.4167C180.157 33.42 180.237 33.7406 180.927 33.9188C181.617 34.0969 182.109 34.2038 183.455 34.3009C184.797 34.3981 185.711 34.4078 187.648 34.4046C189.581 34.3981 190.751 34.4337 193.129 34.2783C195.506 34.1228 196.925 33.9479 199.533 33.6273C202.141 33.3066 203.646 33.0443 206.174 32.6718C208.699 32.2961 210.031 32.0726 212.166 31.7552C214.304 31.4411 215.467 31.3277 216.861 31.088C218.257 30.8484 218.733 30.6767 219.142 30.5601C219.548 30.4468 219.452 30.2459 218.9 30.5148C218.347 30.7836 217.727 31.0589 216.375 31.901C215.023 32.7431 214.013 33.4135 212.147 34.7187C210.284 36.0272 209.005 36.9049 207.056 38.4369C205.106 39.9721 203.943 40.8401 202.4 42.385C200.856 43.9299 200.131 44.7688 199.335 46.1647C198.536 47.5639 198.258 48.2958 198.408 49.3744C198.558 50.4529 199.028 51.0035 200.089 51.5573C201.147 52.1144 202.067 52.218 203.707 52.1597C205.346 52.1014 206.382 51.8423 208.283 51.2658C210.185 50.6926 211.294 50.2262 213.221 49.2837C215.144 48.3412 216.244 47.7582 217.918 46.5501C219.59 45.3453 220.373 44.6198 221.587 43.2498C222.802 41.8798 223.361 41.0798 223.987 39.7033C224.61 38.33 224.741 37.6337 224.713 36.3705C224.684 35.1074 224.38 34.4305 223.843 33.3908C223.307 32.3544 222.827 31.8103 222.025 31.182C221.226 30.5504 220.577 30.3658 219.836 30.2395C219.094 30.1132 218.561 30.2654 218.324 30.5472C218.085 30.8257 218.021 31.2791 218.644 31.6354C219.267 31.9917 219.842 32.1309 221.437 32.3253C223.035 32.5196 224.153 32.5487 226.627 32.6135C229.101 32.6751 230.951 32.6783 233.802 32.6427C236.656 32.607 238.506 32.4969 240.893 32.4289C243.28 32.3609 244.201 32.335 245.744 32.2961C247.288 32.2605 248.036 32.3155 248.611 32.2378C249.183 32.1601 249.186 31.9884 248.611 31.9075C248.036 31.8265 247.285 31.8265 245.738 31.8362C244.191 31.8459 243.268 31.8945 240.88 31.9625C238.493 32.0305 236.646 32.1536 233.798 32.173C230.951 32.1925 229.097 32.1763 226.646 32.0597C224.192 31.9398 223.076 31.82 221.536 31.5901C219.993 31.3601 219.545 31.0686 218.935 30.9131C218.324 30.7577 218.353 30.7577 218.481 30.816C218.609 30.8743 218.992 30.9682 219.577 31.2046C220.162 31.4443 220.705 31.4897 221.411 32.0111C222.121 32.5293 222.6 32.9244 223.118 33.8022C223.639 34.6799 223.946 35.2693 224.01 36.3997C224.07 37.5268 223.997 38.1519 223.428 39.4474C222.862 40.7462 222.341 41.5462 221.178 42.8806C220.015 44.2149 219.254 44.9404 217.618 46.1258C215.979 47.308 214.889 47.8845 212.991 48.7979C211.089 49.7112 209.98 50.1517 208.117 50.6893C206.257 51.227 205.228 51.4375 203.684 51.4861C202.138 51.5346 201.319 51.3792 200.389 50.9387C199.459 50.5015 199.149 50.1873 199.034 49.2901C198.919 48.3898 199.07 47.755 199.814 46.4465C200.556 45.138 201.24 44.2635 202.748 42.7413C204.26 41.2223 205.413 40.3446 207.359 38.8418C209.309 37.3389 210.606 36.4904 212.489 35.2305C214.368 33.9706 215.416 33.3876 216.765 32.539C218.113 31.6905 218.759 31.4605 219.232 30.9876C219.708 30.5115 219.631 30.2751 219.136 30.1715C218.641 30.0678 218.171 30.2492 216.762 30.4694C215.355 30.6929 214.224 30.9261 212.096 31.2791C209.964 31.6354 208.635 31.8621 206.11 32.2443C203.588 32.6265 202.083 32.8823 199.482 33.19C196.88 33.4977 195.465 33.6629 193.1 33.7762C190.735 33.8896 189.568 33.8346 187.657 33.7601C185.746 33.6823 184.855 33.5592 183.541 33.3941C182.228 33.2289 181.828 32.9957 181.09 32.9277C180.355 32.8629 180.166 32.8564 179.856 33.0572C179.543 33.258 179.591 33.407 179.54 33.9317C179.492 34.4596 179.636 34.7447 179.61 35.6904C179.588 36.6329 179.69 37.2515 179.422 38.6539C179.153 40.0563 178.984 41.0182 178.274 42.6992C177.565 44.3834 177.009 45.423 175.871 47.0651C174.73 48.7072 173.963 49.6173 172.583 50.9063C171.199 52.1954 170.374 52.8205 168.952 53.5136C167.533 54.2067 166.718 54.4075 165.485 54.3751C164.248 54.3395 163.66 54.1289 162.775 53.3419C161.886 52.5581 161.512 51.9816 161.052 50.4496C160.589 48.9209 160.41 47.9137 160.464 45.6951C160.515 43.4797 160.707 42.1 161.317 39.3632C161.931 36.6264 162.477 35.0005 163.523 32.0143C164.568 29.0249 165.223 27.3796 166.543 24.4258C167.862 21.4688 168.642 19.9271 170.115 17.2389C171.592 14.5539 172.42 13.1871 173.922 10.988C175.421 8.79207 176.213 7.78804 177.619 6.25285C179.029 4.71765 179.77 4.15409 180.959 3.312C182.148 2.46667 182.72 2.31445 183.563 2.03591C184.404 1.75413 184.724 1.69583 185.174 1.91283C185.625 2.12983 185.654 2.37598 185.817 3.11767C185.976 3.85936 186.059 4.43587 185.976 5.61803C185.89 6.8002 185.817 7.54837 185.395 9.03174C184.973 10.5151 184.65 11.3345 183.867 13.0284C183.087 14.7256 182.665 15.6292 181.489 17.5142C180.31 19.3992 179.572 20.3838 177.977 22.4534C176.382 24.5197 175.5 25.6663 173.513 27.8557C171.528 30.0451 170.374 31.2273 168.045 33.4005C165.718 35.5705 164.408 36.6912 161.873 38.7187C159.342 40.7462 158.01 41.7891 155.383 43.5348C152.753 45.2805 151.318 46.1323 148.729 47.4537C146.141 48.7752 144.779 49.3679 142.44 50.1452C140.097 50.9225 138.889 51.1978 137.026 51.3436C135.16 51.4861 134.258 51.3403 133.121 50.8642C131.98 50.3913 131.705 49.993 131.328 48.9695C130.951 47.946 130.932 47.2044 131.238 45.7469C131.542 44.2894 132.025 43.3567 132.852 41.6822C133.677 40.0077 134.476 38.8741 135.371 37.3746C136.265 35.875 136.917 35.0685 137.326 34.1811C137.739 33.2937 137.822 32.905 137.426 32.9374C137.026 32.9698 136.627 33.3552 135.342 34.3398C134.057 35.3244 133.057 36.3025 130.999 37.8604C128.944 39.4183 127.602 40.5421 125.061 42.1259C122.52 43.7064 121.018 44.5161 118.292 45.7728C115.569 47.0262 114.093 47.5444 111.44 48.3995C108.785 49.2545 107.385 49.6691 105.02 50.0448C102.652 50.4205 101.466 50.495 99.6127 50.2747C97.7623 50.0577 96.9474 49.7598 95.7554 48.9501C94.5665 48.1404 94.084 47.5412 93.6621 46.223C93.2371 44.908 93.2498 44.1081 93.6333 42.3721C94.0136 40.6393 94.4611 39.5025 95.5732 37.5559C96.6853 35.6094 97.5514 34.492 99.1877 32.6427C100.827 30.7901 101.949 29.7601 103.767 28.2994C105.586 26.8355 106.666 26.191 108.277 25.3327C109.887 24.4776 110.788 24.238 111.824 24.0177C112.859 23.8007 113.211 23.7683 113.451 24.2477C113.693 24.7238 113.601 25.2582 113.032 26.4047C112.466 27.5513 111.971 28.3545 110.613 29.9739C109.254 31.5933 108.273 32.6135 106.244 34.5082C104.215 36.3997 102.994 37.5203 100.463 39.4409C97.9349 41.3648 96.3881 42.3882 93.5982 44.1243C90.805 45.857 89.2359 46.7347 86.5067 48.1112C83.7807 49.491 82.3745 50.1549 79.9617 51.0164C77.5456 51.8812 76.3376 52.1533 74.4329 52.4318C72.5314 52.7071 71.6685 52.6877 70.4509 52.3994C69.2301 52.1079 68.885 51.8294 68.3353 50.9808C67.7888 50.1322 67.6993 49.5104 67.7121 48.1501C67.7249 46.7898 67.9071 45.8829 68.3992 44.1825C68.8946 42.4822 69.4123 41.4263 70.1825 39.645C70.9527 37.8636 71.5886 36.8564 72.2438 35.2726C72.9021 33.6856 73.3463 32.8338 73.4646 31.7164C73.5828 30.599 73.4742 30.0257 72.8382 29.6824C72.2022 29.3423 71.6366 29.446 70.2879 30.0128C68.9393 30.5763 67.9646 31.2338 66.095 32.5131C64.2223 33.7924 63.0334 34.7803 60.9338 36.4094C58.8341 38.0353 57.6741 39.0166 55.5968 40.6522C53.5227 42.2878 52.3754 43.2206 50.5602 44.5906C48.7482 45.9574 47.8502 46.6764 46.5239 47.4991C45.2008 48.3217 44.6447 48.5128 43.9417 48.6974C43.2386 48.8821 43.1523 48.9209 43.0149 48.4254C42.8775 47.9266 42.9893 47.4278 43.2578 46.2133C43.523 44.9987 43.8362 44.0659 44.3539 42.3494C44.8684 40.636 45.2839 39.5672 45.8432 37.6434C46.3993 35.7163 46.7092 34.573 47.1439 32.7204C47.5785 30.8678 47.847 29.9026 48.0163 28.3739C48.1825 26.8484 48.2624 26.1132 47.9876 25.0898C47.7159 24.0631 47.4443 23.5967 46.6453 23.2534C45.8464 22.9133 45.3159 22.9327 43.9896 23.3732C42.6634 23.8137 41.8516 24.2833 40.014 25.4525C38.1796 26.6217 37.0387 27.4379 34.8049 29.2225C32.571 31.0071 31.1968 32.1568 28.8511 34.3754C26.5053 36.5973 25.2174 38.0256 23.0762 40.3284C20.935 42.6279 19.8453 43.9753 18.1451 45.8829C16.4449 47.7906 15.5629 48.7525 14.5754 49.8699C13.5847 50.984 13.329 51.4569 13.2012 51.4634C13.0701 51.4731 13.3642 51.1071 13.9266 49.912C14.4891 48.7201 15.0132 47.593 16.0135 45.504C17.0138 43.4149 17.8127 42.0093 18.9312 39.4733C20.0498 36.9406 20.7433 35.3795 21.6125 32.8338C22.4818 30.288 22.9292 28.9018 23.2776 26.7448C23.6259 24.591 23.6994 23.5967 23.3511 22.0615C22.9995 20.5263 22.5138 19.7943 21.5358 19.0721C20.5547 18.3498 19.8197 18.2753 18.4487 18.4502C17.0777 18.6219 16.2596 19.0656 14.684 19.9336C13.1117 20.8016 12.1689 21.5238 10.5806 22.787C8.99227 24.0533 8.12622 24.8015 6.73924 26.2622C5.35226 27.7229 4.67475 28.7043 3.6457 30.0937C2.61665 31.4832 2.13727 32.173 1.60037 33.2062C1.06347 34.2426 1.00915 34.8224 0.964408 35.2693C0.922862 35.7131 1.11461 35.7714 1.37986 35.4378Z" fill="#D9DAD7" stroke="#D9DAD7"/>
</g>
<defs>
<clipPath id="clip0_880_57">
<rect width="250" height="56" fill="white"/>
</clipPath>
</defs>
</svg>
